<svg width="184" height="184" viewBox="0 0 184 184" fill="none" xmlns="http://www.w3.org/2000/svg">
<path d="M180.906 34.5154L149.537 3.08685C146.18 -0.266866 140.772 -0.265723 137.422 3.08685L92.0509 48.5154L46.6212 3.08685C43.3469 -0.190295 37.9297 -0.333723 34.5063 3.08685L3.13656 34.5154C-0.233724 37.8874 -0.233724 43.2583 3.13656 46.6291L48.5069 92L3.13599 137.373C-0.234296 140.686 -0.234296 146.115 3.13599 149.486L34.5646 180.915C37.8223 184.173 43.1137 184.359 46.6795 180.915L92.0503 135.544L137.363 180.915C140.768 184.317 146.186 184.209 149.478 180.915L180.906 149.486C184.221 146.116 184.221 140.686 180.906 137.373L135.536 92L180.906 46.6291C184.221 43.2583 184.221 37.8874 180.906 34.5154Z" fill="#31C6BB"/>
</svg>
